<svg version="1.1" id="Layer_1" xmlns="http://www.w3.org/2000/svg" xmlns:xlink="http://www.w3.org/1999/xlink" x="0px" y="0px"
	 width="100%" viewBox="0 0 512 512" enable-background="new 0 0 512 512" xml:space="preserve">
<path fill="#000000" opacity="1.000000" stroke="none" 
	d="
M283.000000,513.000000 
	C188.689560,513.000000 94.879120,513.000000 1.034338,513.000000 
	C1.034338,342.397858 1.034338,171.795731 1.034338,1.096792 
	C171.560455,1.096792 342.121002,1.096792 512.840759,1.096792 
	C512.840759,171.666550 512.840759,342.333252 512.840759,513.000000 
	C436.462372,513.000000 359.981171,513.000000 283.000000,513.000000 
M261.246735,374.022095 
	C260.240082,374.059631 259.233429,374.097198 257.416382,373.953613 
	C256.869446,374.013977 256.322479,374.074341 255.030960,374.016174 
	C254.022736,374.066315 253.014526,374.116455 251.319412,374.025513 
	C250.525909,374.312927 249.732391,374.600342 248.208832,374.719940 
	C243.754288,373.478577 239.241531,372.410187 234.865036,370.936951 
	C231.782486,369.899292 228.885086,368.311646 225.512756,366.447662 
	C220.265549,361.341125 214.942795,356.309601 209.784546,351.114716 
	C190.082321,331.272522 169.877945,311.890137 150.921509,291.357086 
	C132.304871,271.192047 132.951706,241.718246 151.908646,222.227707 
	C176.581863,196.860046 201.887375,172.107361 227.719437,147.019943 
	C232.116394,145.349792 236.682358,144.020264 240.875671,141.939697 
	C250.041061,137.392136 259.529633,136.524567 268.928955,140.057266 
	C275.857483,142.661346 282.258270,146.669708 289.126495,150.609390 
	C289.745270,151.105148 290.364014,151.600891 291.098969,152.560684 
	C291.282135,152.855286 291.546722,153.014847 292.145142,153.642471 
	C293.416473,154.784302 294.687836,155.926132 295.997589,157.007919 
	C295.997589,157.007919 295.931274,157.033997 296.126617,157.621765 
	C296.750092,158.156372 297.373535,158.690979 298.205139,159.763000 
	C299.063232,160.508774 299.921326,161.254532 301.060638,162.556915 
	C301.693817,163.064667 302.326996,163.572418 302.991119,164.009003 
	C302.991119,164.009003 302.922882,164.046005 303.170227,164.671799 
	C313.773438,175.126099 324.376648,185.580399 335.252472,196.703491 
	C338.886383,198.597595 342.326874,201.195053 346.189575,202.257187 
	C359.057159,205.795410 367.874756,198.618149 375.902802,190.001938 
	C376.469238,189.393982 376.535217,188.267059 376.710541,187.357666 
	C377.143127,185.113678 377.451416,182.844986 377.914246,180.607864 
	C378.171844,179.362686 379.237183,177.967560 378.915222,176.970444 
	C376.635254,169.909927 375.889771,162.192001 370.123627,156.583328 
	C354.763214,141.642395 339.561401,126.537521 324.127502,111.673332 
	C312.846313,100.808563 299.366882,93.946518 283.958221,90.133232 
	C284.966248,88.876244 285.869843,87.515717 286.998230,86.378143 
	C299.671143,73.601990 312.350708,60.832111 325.087158,48.119335 
	C333.030884,40.190357 332.704956,25.919895 328.050964,18.045824 
	C319.513947,3.601979 299.260681,2.517345 287.163818,14.811244 
	C239.264893,63.490177 190.616898,111.431213 142.397888,159.796631 
	C131.150208,171.078476 118.882843,181.343384 109.191765,194.205582 
	C92.635796,216.179031 85.310089,240.579773 88.047066,268.020416 
	C90.127647,288.880035 97.846169,307.454987 111.510963,323.165161 
	C120.924736,333.988068 131.491028,343.814453 141.627213,354.001617 
	C156.428314,368.877167 171.273087,383.709686 186.179733,398.479340 
	C188.959335,401.233429 192.117737,403.605133 195.229630,406.620331 
	C195.448135,406.910370 195.736221,407.023651 196.016235,406.949768 
	C196.016235,406.949768 196.062378,406.886444 195.963867,407.670807 
	C197.280167,408.646545 198.592499,409.627686 199.913544,410.597015 
	C203.836182,413.475281 207.591553,416.638580 211.762451,419.096283 
	C213.709137,420.243378 216.572205,419.703430 218.829376,420.481171 
	C224.665817,422.492188 230.260498,426.087463 236.199661,426.719269 
	C246.102005,427.772705 256.205017,427.234283 266.209351,426.918243 
	C271.733704,426.743744 277.258881,425.836456 282.728943,424.929321 
	C287.544403,424.130737 292.264099,423.150482 296.483765,420.134247 
	C300.002991,417.618683 304.073578,415.768402 308.090363,414.075043 
	C319.684448,409.187317 328.187286,400.393951 336.758209,391.711212 
	C348.205872,380.114136 359.433105,368.299500 370.873016,356.694611 
	C374.827271,352.683380 377.297211,348.149597 378.501709,342.600800 
	C379.928467,336.027924 378.508850,329.460114 374.644135,325.147430 
	C371.032654,321.117310 368.050690,315.663239 361.205322,314.331696 
	C353.690704,312.869965 346.762665,311.744263 339.369598,316.028381 
	C338.877838,316.330719 338.386078,316.633057 337.977814,316.969116 
	C337.977814,316.969116 337.939789,316.887451 337.292725,316.994354 
	C336.497192,317.642731 335.701691,318.291138 334.976624,318.977631 
	C334.976624,318.977631 334.966553,318.898193 334.449493,319.064972 
	C334.265656,319.365387 334.081818,319.665802 333.977386,319.963501 
	C333.977386,319.963501 333.935760,319.895782 333.237762,319.989960 
	C330.199371,323.109894 327.231812,326.302734 324.108948,329.335663 
	C315.727142,337.476105 307.249451,345.517944 298.889221,353.680267 
	C297.657898,354.882477 296.858643,356.527222 295.330353,358.145782 
	C294.875854,358.716705 294.421326,359.287628 293.410400,360.098969 
	C292.906769,360.714386 292.403107,361.329803 291.979584,361.974701 
	C291.979584,361.974701 291.944916,361.896667 291.268127,362.003418 
	C290.476288,362.981415 289.684448,363.959412 288.975800,364.968658 
	C288.975800,364.968658 288.939453,364.887543 288.293488,364.997253 
	C287.493073,365.643585 286.692657,366.289917 285.975098,366.966888 
	C285.975098,366.966888 285.940735,366.885498 285.288696,366.994171 
	C284.483185,367.649323 283.677704,368.304474 282.128418,369.003387 
	C280.220520,370.275330 278.467255,372.146088 276.370697,372.687500 
	C272.660187,373.645599 268.740906,373.795258 264.194489,374.102417 
	C263.461426,374.123840 262.728333,374.145264 261.246735,374.022095 
M441.993347,261.102386 
	C443.290100,248.952957 438.350525,240.047531 427.725769,234.330170 
	C425.431335,233.095490 422.666656,232.076996 420.116364,232.071884 
	C359.999115,231.951355 299.881500,231.960220 239.764191,232.072144 
	C237.324402,232.076691 234.773605,233.052353 232.470383,234.034744 
	C226.456833,236.599686 222.962311,241.152542 219.532196,246.961731 
	C213.819580,256.636536 217.430038,264.983551 221.358887,272.768982 
	C224.520294,279.033661 231.567581,282.170776 239.937134,282.988800 
	C298.915527,282.992218 357.893890,283.001617 416.872253,282.966431 
	C418.437836,282.965515 420.003113,282.480194 421.696594,282.740112 
	C421.874847,282.743561 422.053131,282.747040 422.958405,282.465393 
	C425.970825,280.984222 428.961304,279.456177 432.000366,278.031769 
	C438.109192,275.168488 442.137177,268.661865 441.993347,261.102386 
M295.500000,285.002655 
	C336.816589,285.002655 378.133179,285.002655 419.449799,285.002655 
	C419.448853,284.743927 419.447937,284.485168 419.447021,284.226440 
	C359.423431,284.226440 299.399841,284.226440 239.376282,284.226440 
	C239.374496,284.485168 239.372726,284.743927 239.370941,285.002655 
	C257.747284,285.002655 276.123657,285.002655 295.500000,285.002655 
M306.500000,230.999405 
	C344.044556,230.999405 381.589142,230.999405 419.133698,230.999405 
	C419.132202,230.758896 419.130676,230.518387 419.129150,230.277878 
	C359.304535,230.277878 299.479889,230.277878 239.655258,230.277878 
	C239.654510,230.518387 239.653748,230.758896 239.653000,230.999405 
	C261.601990,230.999405 283.550995,230.999405 306.500000,230.999405 
z"/>
<path fill="#FEFDFD" opacity="1.000000" stroke="none" 
	d="
M195.101349,406.153290 
	C192.117737,403.605133 188.959335,401.233429 186.179733,398.479340 
	C171.273087,383.709686 156.428314,368.877167 141.627213,354.001617 
	C131.491028,343.814453 120.924736,333.988068 111.510963,323.165161 
	C97.846169,307.454987 90.127647,288.880035 88.047066,268.020416 
	C85.310089,240.579773 92.635796,216.179031 109.191765,194.205582 
	C118.882843,181.343384 131.150208,171.078476 142.397888,159.796631 
	C190.616898,111.431213 239.264893,63.490177 287.163818,14.811244 
	C299.260681,2.517345 319.513947,3.601979 328.050964,18.045824 
	C332.704956,25.919895 333.030884,40.190357 325.087158,48.119335 
	C312.350708,60.832111 299.671143,73.601990 286.998230,86.378143 
	C285.869843,87.515717 284.966248,88.876244 283.640167,90.567123 
	C281.928680,92.149673 280.431519,93.194153 279.157745,94.462952 
	C265.004028,108.561592 250.871277,122.681374 236.766479,136.828979 
	C233.420349,140.185287 230.199326,143.666336 226.920776,147.090027 
	C201.887375,172.107361 176.581863,196.860046 151.908646,222.227707 
	C132.951706,241.718246 132.304871,271.192047 150.921509,291.357086 
	C169.877945,311.890137 190.082321,331.272522 209.784546,351.114716 
	C214.942795,356.309601 220.265549,361.341125 225.809387,367.053772 
	C226.776154,368.806702 227.375900,370.002045 228.127151,371.093048 
	C237.237198,384.323029 228.328323,402.304138 214.034622,407.394836 
	C207.608459,409.683502 202.019806,407.609009 196.062378,406.886444 
	C196.062378,406.886444 196.016235,406.949768 196.089020,406.666870 
	C195.808304,406.307068 195.454834,406.230164 195.101349,406.153290 
z"/>
<path fill="#B4B2B1" opacity="1.000000" stroke="none" 
	d="
M422.231384,282.750519 
	C422.053131,282.747040 421.874847,282.743561 421.207153,282.301666 
	C419.268036,281.575989 417.818604,281.038635 416.368744,281.037567 
	C358.580597,280.994690 300.792358,280.988068 243.004333,281.076965 
	C241.672318,281.079010 240.342072,282.229889 239.011017,282.844910 
	C231.567581,282.170776 224.520294,279.033661 221.358887,272.768982 
	C217.430038,264.983551 213.819580,256.636536 219.532196,246.961731 
	C222.962311,241.152542 226.456833,236.599686 232.470383,234.034744 
	C234.773605,233.052353 237.324402,232.076691 239.764191,232.072144 
	C299.881500,231.960220 359.999115,231.951355 420.116364,232.071884 
	C422.666656,232.076996 425.431335,233.095490 427.725769,234.330170 
	C438.350525,240.047531 443.290100,248.952957 441.548584,261.564880 
	C440.457916,262.423401 439.352386,262.714661 439.234802,263.230988 
	C437.309662,271.683685 431.952637,276.900116 424.069702,279.972961 
	C423.224457,280.302460 422.833221,281.796631 422.231384,282.750519 
z"/>
<path fill="#EBA341" opacity="1.000000" stroke="none" 
	d="
M196.013123,407.278625 
	C202.019806,407.609009 207.608459,409.683502 214.034622,407.394836 
	C228.328323,402.304138 237.237198,384.323029 228.127151,371.093048 
	C227.375900,370.002045 226.776154,368.806702 226.005508,367.314697 
	C228.885086,368.311646 231.782486,369.899292 234.865036,370.936951 
	C239.241531,372.410187 243.754288,373.478577 248.950806,374.839478 
	C250.452667,374.964905 251.212555,374.970795 252.323944,374.981750 
	C253.708817,374.702820 254.742172,374.418762 255.775528,374.134705 
	C256.322479,374.074341 256.869446,374.013977 258.014343,374.319397 
	C259.745422,374.781952 260.878601,374.878754 262.329407,374.975891 
	C263.401031,374.745239 264.155029,374.514252 264.908997,374.283264 
	C268.740906,373.795258 272.660187,373.645599 276.370697,372.687500 
	C278.467255,372.146088 280.220520,370.275330 282.871643,368.991150 
	C284.390137,368.281128 285.165436,367.583313 285.940735,366.885498 
	C285.940735,366.885498 285.975098,366.966888 286.303162,366.968689 
	C287.400604,366.276154 288.170013,365.581848 288.939453,364.887543 
	C288.939453,364.887543 288.975800,364.968658 289.289459,364.941589 
	C290.383728,363.908600 291.164307,362.902618 291.944916,361.896667 
	C291.944916,361.896667 291.979584,361.974701 292.282043,361.934265 
	C293.045258,361.215363 293.506042,360.536957 293.966827,359.858551 
	C294.421326,359.287628 294.875854,358.716705 295.950317,358.041199 
	C297.162537,357.658478 297.880829,357.511810 298.328461,357.082764 
	C307.933960,347.875946 317.617950,338.746185 327.022156,329.337097 
	C329.747375,326.610474 331.653931,323.065582 333.935760,319.895782 
	C333.935760,319.895782 333.977386,319.963501 334.183899,319.864685 
	C334.582458,319.476624 334.774506,319.187408 334.966553,318.898193 
	C334.966553,318.898193 334.976624,318.977631 335.309387,318.975830 
	C336.408020,318.278473 337.173920,317.582977 337.939789,316.887451 
	C337.939789,316.887451 337.977814,316.969116 338.234192,316.960388 
	C338.992828,316.686951 339.495087,316.422241 339.997314,316.157532 
	C346.762665,311.744263 353.690704,312.869965 361.205322,314.331696 
	C368.050690,315.663239 371.032654,321.117310 374.644135,325.147430 
	C378.508850,329.460114 379.928467,336.027924 378.501709,342.600800 
	C377.297211,348.149597 374.827271,352.683380 370.873016,356.694611 
	C359.433105,368.299500 348.205872,380.114136 336.758209,391.711212 
	C328.187286,400.393951 319.684448,409.187317 308.090363,414.075043 
	C304.073578,415.768402 300.002991,417.618683 296.483765,420.134247 
	C292.264099,423.150482 287.544403,424.130737 282.728943,424.929321 
	C277.258881,425.836456 271.733704,426.743744 266.209351,426.918243 
	C256.205017,427.234283 246.102005,427.772705 236.199661,426.719269 
	C230.260498,426.087463 224.665817,422.492188 218.829376,420.481171 
	C216.572205,419.703430 213.709137,420.243378 211.762451,419.096283 
	C207.591553,416.638580 203.836182,413.475281 199.913544,410.597015 
	C198.592499,409.627686 197.280167,408.646545 196.013123,407.278625 
z"/>
<path fill="#EBA342" opacity="1.000000" stroke="none" 
	d="
M227.320099,147.054993 
	C230.199326,143.666336 233.420349,140.185287 236.766479,136.828979 
	C250.871277,122.681374 265.004028,108.561592 279.157745,94.462952 
	C280.431519,93.194153 281.928680,92.149673 283.661316,90.916458 
	C299.366882,93.946518 312.846313,100.808563 324.127502,111.673332 
	C339.561401,126.537521 354.763214,141.642395 370.123627,156.583328 
	C375.889771,162.192001 376.635254,169.909927 378.915222,176.970444 
	C379.237183,177.967560 378.171844,179.362686 377.914246,180.607864 
	C377.451416,182.844986 377.143127,185.113678 376.710541,187.357666 
	C376.535217,188.267059 376.469238,189.393982 375.902802,190.001938 
	C367.874756,198.618149 359.057159,205.795410 346.189575,202.257187 
	C342.326874,201.195053 338.886383,198.597595 335.115967,196.002930 
	C334.421295,194.154633 334.114777,192.758911 333.266052,191.897446 
	C324.658264,183.160507 316.004425,174.467346 307.234344,165.894043 
	C306.191528,164.874619 304.378754,164.642868 302.922882,164.046005 
	C302.922882,164.046005 302.991119,164.009003 302.963745,163.689667 
	C302.217377,162.913635 301.498383,162.456970 300.779419,162.000305 
	C299.921326,161.254532 299.063232,160.508774 298.092804,159.136414 
	C297.297394,158.017899 296.614349,157.525940 295.931274,157.033997 
	C295.931274,157.033997 295.997589,157.007919 296.009949,156.673340 
	C295.455414,154.225662 295.295471,151.603149 291.892761,153.039368 
	C291.546722,153.014847 291.282135,152.855286 291.004730,151.990631 
	C290.238403,150.964508 289.566284,150.508423 288.894196,150.052338 
	C282.258270,146.669708 275.857483,142.661346 268.928955,140.057266 
	C259.529633,136.524567 250.041061,137.392136 240.875671,141.939697 
	C236.682358,144.020264 232.116394,145.349792 227.320099,147.054993 
z"/>
<path fill="#BEBDBC" opacity="1.000000" stroke="none" 
	d="
M239.474075,282.916870 
	C240.342072,282.229889 241.672318,281.079010 243.004333,281.076965 
	C300.792358,280.988068 358.580597,280.994690 416.368744,281.037567 
	C417.818604,281.038635 419.268036,281.575989 421.143127,282.041992 
	C420.003113,282.480194 418.437836,282.965515 416.872253,282.966431 
	C357.893890,283.001617 298.915527,282.992218 239.474075,282.916870 
z"/>
<path fill="#FEFDFD" opacity="1.000000" stroke="none" 
	d="
M295.000000,285.002655 
	C276.123657,285.002655 257.747284,285.002655 239.370941,285.002655 
	C239.372726,284.743927 239.374496,284.485168 239.376282,284.226440 
	C299.399841,284.226440 359.423431,284.226440 419.447021,284.226440 
	C419.447937,284.485168 419.448853,284.743927 419.449799,285.002655 
	C378.133179,285.002655 336.816589,285.002655 295.000000,285.002655 
z"/>
<path fill="#808080" opacity="1.000000" stroke="none" 
	d="
M306.000000,230.999405 
	C283.550995,230.999405 261.601990,230.999405 239.653000,230.999405 
	C239.653748,230.758896 239.654510,230.518387 239.655258,230.277878 
	C299.479889,230.277878 359.304535,230.277878 419.129150,230.277878 
	C419.130676,230.518387 419.132202,230.758896 419.133698,230.999405 
	C381.589142,230.999405 344.044556,230.999405 306.000000,230.999405 
z"/>
<path fill="#EEAC56" opacity="1.000000" stroke="none" 
	d="
M333.586761,319.942871 
	C331.653931,323.065582 329.747375,326.610474 327.022156,329.337097 
	C317.617950,338.746185 307.933960,347.875946 298.328461,357.082764 
	C297.880829,357.511810 297.162537,357.658478 296.214905,357.951965 
	C296.858643,356.527222 297.657898,354.882477 298.889221,353.680267 
	C307.249451,345.517944 315.727142,337.476105 324.108948,329.335663 
	C327.231812,326.302734 330.199371,323.109894 333.586761,319.942871 
z"/>
<path fill="#EAB16F" opacity="1.000000" stroke="none" 
	d="
M303.046570,164.358902 
	C304.378754,164.642868 306.191528,164.874619 307.234344,165.894043 
	C316.004425,174.467346 324.658264,183.160507 333.266052,191.897446 
	C334.114777,192.758911 334.421295,194.154633 334.979675,195.668533 
	C324.376648,185.580399 313.773438,175.126099 303.046570,164.358902 
z"/>
<path fill="#BCBBBA" opacity="1.000000" stroke="none" 
	d="
M422.594910,282.607971 
	C422.833221,281.796631 423.224457,280.302460 424.069702,279.972961 
	C431.952637,276.900116 437.309662,271.683685 439.234802,263.230988 
	C439.352386,262.714661 440.457916,262.423401 441.475403,262.017761 
	C442.137177,268.661865 438.109192,275.168488 432.000366,278.031769 
	C428.961304,279.456177 425.970825,280.984222 422.594910,282.607971 
z"/>
<path fill="#EAB16F" opacity="1.000000" stroke="none" 
	d="
M292.018951,153.340912 
	C295.295471,151.603149 295.455414,154.225662 295.990753,156.703369 
	C294.687836,155.926132 293.416473,154.784302 292.018951,153.340912 
z"/>
<path fill="#EEAC56" opacity="1.000000" stroke="none" 
	d="
M291.606506,361.950043 
	C291.164307,362.902618 290.383728,363.908600 289.247864,364.925964 
	C289.684448,363.959412 290.476288,362.981415 291.606506,361.950043 
z"/>
<path fill="#EEAC56" opacity="1.000000" stroke="none" 
	d="
M337.616272,316.940918 
	C337.173920,317.582977 336.408020,318.278473 335.274170,318.956787 
	C335.701691,318.291138 336.497192,317.642731 337.616272,316.940918 
z"/>
<path fill="#EEAC56" opacity="1.000000" stroke="none" 
	d="
M288.616455,364.942383 
	C288.170013,365.581848 287.400604,366.276154 286.261719,366.953339 
	C286.692657,366.289917 287.493073,365.643585 288.616455,364.942383 
z"/>
<path fill="#EEAC56" opacity="1.000000" stroke="none" 
	d="
M285.614716,366.939819 
	C285.165436,367.583313 284.390137,368.281128 283.243530,368.969299 
	C283.677704,368.304474 284.483185,367.649323 285.614716,366.939819 
z"/>
<path fill="#FF8080" opacity="1.000000" stroke="none" 
	d="
M255.403244,374.075439 
	C254.742172,374.418762 253.708817,374.702820 252.335602,374.779541 
	C251.995758,374.572205 252.006302,374.166595 252.006302,374.166595 
	C253.014526,374.116455 254.022736,374.066315 255.403244,374.075439 
z"/>
<path fill="#FF8080" opacity="1.000000" stroke="none" 
	d="
M262.011749,374.975555 
	C260.878601,374.878754 259.745422,374.781952 258.419525,374.409973 
	C259.233429,374.097198 260.240082,374.059631 261.623932,374.296631 
	C262.001129,374.571167 262.011749,374.975555 262.011749,374.975555 
z"/>
<path fill="#EAB16F" opacity="1.000000" stroke="none" 
	d="
M300.920044,162.278610 
	C301.498383,162.456970 302.217377,162.913635 302.948242,163.725250 
	C302.326996,163.572418 301.693817,163.064667 300.920044,162.278610 
z"/>
<path fill="#EAB16F" opacity="1.000000" stroke="none" 
	d="
M296.028931,157.327881 
	C296.614349,157.525940 297.297394,158.017899 297.988739,158.867722 
	C297.373535,158.690979 296.750092,158.156372 296.028931,157.327881 
z"/>
<path fill="#EEAC56" opacity="1.000000" stroke="none" 
	d="
M293.688599,359.978760 
	C293.506042,360.536957 293.045258,361.215363 292.241974,361.919495 
	C292.403107,361.329803 292.906769,360.714386 293.688599,359.978760 
z"/>
<path fill="#FF8000" opacity="1.000000" stroke="none" 
	d="
M251.662857,374.096069 
	C252.006302,374.166595 251.995758,374.572205 251.984100,374.774445 
	C251.212555,374.970795 250.452667,374.964905 249.315826,374.923401 
	C249.732391,374.600342 250.525909,374.312927 251.662857,374.096069 
z"/>
<path fill="#FF8000" opacity="1.000000" stroke="none" 
	d="
M262.329407,374.975891 
	C262.011749,374.975555 262.001129,374.571167 261.998199,374.368927 
	C262.728333,374.145264 263.461426,374.123840 264.551758,374.192841 
	C264.155029,374.514252 263.401031,374.745239 262.329407,374.975891 
z"/>
<path fill="#EAB16F" opacity="1.000000" stroke="none" 
	d="
M289.010345,150.330872 
	C289.566284,150.508423 290.238403,150.964508 290.946655,151.758621 
	C290.364014,151.600891 289.745270,151.105148 289.010345,150.330872 
z"/>
<path fill="#EEAC56" opacity="1.000000" stroke="none" 
	d="
M339.683472,316.092957 
	C339.495087,316.422241 338.992828,316.686951 338.192444,316.943512 
	C338.386078,316.633057 338.877838,316.330719 339.683472,316.092957 
z"/>
<path fill="#EEAC56" opacity="1.000000" stroke="none" 
	d="
M334.708008,318.981567 
	C334.774506,319.187408 334.582458,319.476624 334.144196,319.866028 
	C334.081818,319.665802 334.265656,319.365387 334.708008,318.981567 
z"/>
<path fill="#EBA341" opacity="1.000000" stroke="none" 
	d="
M195.165497,406.386810 
	C195.454834,406.230164 195.808304,406.307068 196.127838,406.672058 
	C195.736221,407.023651 195.448135,406.910370 195.165497,406.386810 
z"/>
</svg>